<mxfile host="app.diagrams.net" modified="2023-09-26T21:06:44.578Z" agent="Mozilla/5.0 (Macintosh; Intel Mac OS X 10_15_7) AppleWebKit/537.36 (KHTML, like Gecko) Chrome/116.0.0.0 Safari/537.36" etag="FMSDz8d5CqFXW-jkLyf6" version="21.8.2" type="device">
  <diagram name="PÃ¡gina-1" id="4GQdRo6-TERk7sKKSEY7">
    <mxGraphModel dx="1434" dy="790" grid="1" gridSize="10" guides="1" tooltips="1" connect="1" arrows="1" fold="1" page="1" pageScale="1" pageWidth="827" pageHeight="1169" math="0" shadow="0">
      <root>
        <mxCell id="0" />
        <mxCell id="1" parent="0" />
        <mxCell id="cD0dvDehbpcGYG6VARs2-8" value="" style="edgeStyle=orthogonalEdgeStyle;rounded=0;orthogonalLoop=1;jettySize=auto;html=1;entryX=0;entryY=0.5;entryDx=0;entryDy=0;" edge="1" parent="1" source="cD0dvDehbpcGYG6VARs2-1" target="cD0dvDehbpcGYG6VARs2-7">
          <mxGeometry relative="1" as="geometry" />
        </mxCell>
        <mxCell id="cD0dvDehbpcGYG6VARs2-12" style="edgeStyle=orthogonalEdgeStyle;rounded=0;orthogonalLoop=1;jettySize=auto;html=1;entryX=1;entryY=0.5;entryDx=0;entryDy=0;" edge="1" parent="1" source="cD0dvDehbpcGYG6VARs2-1" target="cD0dvDehbpcGYG6VARs2-11">
          <mxGeometry relative="1" as="geometry" />
        </mxCell>
        <mxCell id="cD0dvDehbpcGYG6VARs2-14" value="" style="edgeStyle=orthogonalEdgeStyle;rounded=0;orthogonalLoop=1;jettySize=auto;html=1;" edge="1" parent="1" source="cD0dvDehbpcGYG6VARs2-1" target="cD0dvDehbpcGYG6VARs2-13">
          <mxGeometry relative="1" as="geometry" />
        </mxCell>
        <mxCell id="cD0dvDehbpcGYG6VARs2-23" style="edgeStyle=orthogonalEdgeStyle;rounded=0;orthogonalLoop=1;jettySize=auto;html=1;entryX=1;entryY=0.5;entryDx=0;entryDy=0;" edge="1" parent="1" source="cD0dvDehbpcGYG6VARs2-1" target="cD0dvDehbpcGYG6VARs2-16">
          <mxGeometry relative="1" as="geometry" />
        </mxCell>
        <mxCell id="cD0dvDehbpcGYG6VARs2-24" style="edgeStyle=orthogonalEdgeStyle;rounded=0;orthogonalLoop=1;jettySize=auto;html=1;entryX=1;entryY=0.5;entryDx=0;entryDy=0;" edge="1" parent="1" source="cD0dvDehbpcGYG6VARs2-1" target="cD0dvDehbpcGYG6VARs2-17">
          <mxGeometry relative="1" as="geometry" />
        </mxCell>
        <mxCell id="cD0dvDehbpcGYG6VARs2-25" style="edgeStyle=orthogonalEdgeStyle;rounded=0;orthogonalLoop=1;jettySize=auto;html=1;entryX=1;entryY=0.5;entryDx=0;entryDy=0;" edge="1" parent="1" source="cD0dvDehbpcGYG6VARs2-1" target="cD0dvDehbpcGYG6VARs2-18">
          <mxGeometry relative="1" as="geometry" />
        </mxCell>
        <mxCell id="cD0dvDehbpcGYG6VARs2-26" style="edgeStyle=orthogonalEdgeStyle;rounded=0;orthogonalLoop=1;jettySize=auto;html=1;entryX=1;entryY=0.5;entryDx=0;entryDy=0;" edge="1" parent="1" source="cD0dvDehbpcGYG6VARs2-1" target="cD0dvDehbpcGYG6VARs2-19">
          <mxGeometry relative="1" as="geometry" />
        </mxCell>
        <mxCell id="cD0dvDehbpcGYG6VARs2-27" style="edgeStyle=orthogonalEdgeStyle;rounded=0;orthogonalLoop=1;jettySize=auto;html=1;entryX=1;entryY=0.5;entryDx=0;entryDy=0;" edge="1" parent="1" source="cD0dvDehbpcGYG6VARs2-1" target="cD0dvDehbpcGYG6VARs2-20">
          <mxGeometry relative="1" as="geometry" />
        </mxCell>
        <mxCell id="cD0dvDehbpcGYG6VARs2-28" style="edgeStyle=orthogonalEdgeStyle;rounded=0;orthogonalLoop=1;jettySize=auto;html=1;entryX=1;entryY=0.5;entryDx=0;entryDy=0;" edge="1" parent="1" source="cD0dvDehbpcGYG6VARs2-1" target="cD0dvDehbpcGYG6VARs2-21">
          <mxGeometry relative="1" as="geometry" />
        </mxCell>
        <mxCell id="cD0dvDehbpcGYG6VARs2-29" style="edgeStyle=orthogonalEdgeStyle;rounded=0;orthogonalLoop=1;jettySize=auto;html=1;entryX=1;entryY=0.5;entryDx=0;entryDy=0;" edge="1" parent="1" source="cD0dvDehbpcGYG6VARs2-1" target="cD0dvDehbpcGYG6VARs2-22">
          <mxGeometry relative="1" as="geometry" />
        </mxCell>
        <mxCell id="cD0dvDehbpcGYG6VARs2-37" style="edgeStyle=orthogonalEdgeStyle;rounded=0;orthogonalLoop=1;jettySize=auto;html=1;entryX=0.5;entryY=0;entryDx=0;entryDy=0;" edge="1" parent="1" source="cD0dvDehbpcGYG6VARs2-1" target="cD0dvDehbpcGYG6VARs2-36">
          <mxGeometry relative="1" as="geometry" />
        </mxCell>
        <mxCell id="cD0dvDehbpcGYG6VARs2-1" value="&lt;font style=&quot;font-size: 14px;&quot;&gt;carreras&lt;/font&gt;" style="whiteSpace=wrap;html=1;align=center;fontStyle=1;strokeWidth=1;" vertex="1" parent="1">
          <mxGeometry x="264" y="270" width="100" height="40" as="geometry" />
        </mxCell>
        <mxCell id="cD0dvDehbpcGYG6VARs2-33" style="edgeStyle=orthogonalEdgeStyle;rounded=0;orthogonalLoop=1;jettySize=auto;html=1;entryX=0.5;entryY=1;entryDx=0;entryDy=0;" edge="1" parent="1" source="cD0dvDehbpcGYG6VARs2-2" target="cD0dvDehbpcGYG6VARs2-30">
          <mxGeometry relative="1" as="geometry" />
        </mxCell>
        <mxCell id="cD0dvDehbpcGYG6VARs2-34" style="edgeStyle=orthogonalEdgeStyle;rounded=0;orthogonalLoop=1;jettySize=auto;html=1;" edge="1" parent="1" source="cD0dvDehbpcGYG6VARs2-2" target="cD0dvDehbpcGYG6VARs2-31">
          <mxGeometry relative="1" as="geometry" />
        </mxCell>
        <mxCell id="cD0dvDehbpcGYG6VARs2-35" style="edgeStyle=orthogonalEdgeStyle;rounded=0;orthogonalLoop=1;jettySize=auto;html=1;" edge="1" parent="1" source="cD0dvDehbpcGYG6VARs2-2" target="cD0dvDehbpcGYG6VARs2-32">
          <mxGeometry relative="1" as="geometry" />
        </mxCell>
        <mxCell id="cD0dvDehbpcGYG6VARs2-2" value="&lt;font style=&quot;font-size: 14px;&quot;&gt;tipos_carreras&lt;/font&gt;" style="whiteSpace=wrap;html=1;align=center;fontStyle=1;strokeWidth=1;" vertex="1" parent="1">
          <mxGeometry x="568" y="270" width="126" height="40" as="geometry" />
        </mxCell>
        <mxCell id="cD0dvDehbpcGYG6VARs2-45" style="edgeStyle=orthogonalEdgeStyle;rounded=0;orthogonalLoop=1;jettySize=auto;html=1;entryX=0.5;entryY=0;entryDx=0;entryDy=0;" edge="1" parent="1" source="cD0dvDehbpcGYG6VARs2-3" target="cD0dvDehbpcGYG6VARs2-43">
          <mxGeometry relative="1" as="geometry" />
        </mxCell>
        <mxCell id="cD0dvDehbpcGYG6VARs2-46" style="edgeStyle=orthogonalEdgeStyle;rounded=0;orthogonalLoop=1;jettySize=auto;html=1;entryX=0.5;entryY=0;entryDx=0;entryDy=0;" edge="1" parent="1" source="cD0dvDehbpcGYG6VARs2-3" target="cD0dvDehbpcGYG6VARs2-44">
          <mxGeometry relative="1" as="geometry" />
        </mxCell>
        <mxCell id="cD0dvDehbpcGYG6VARs2-3" value="&lt;font style=&quot;font-size: 14px;&quot;&gt;paises&lt;/font&gt;" style="whiteSpace=wrap;html=1;align=center;fontStyle=1;strokeWidth=1;" vertex="1" parent="1">
          <mxGeometry x="274" y="600" width="100" height="40" as="geometry" />
        </mxCell>
        <mxCell id="cD0dvDehbpcGYG6VARs2-7" value="&lt;b&gt;carrera_id&lt;/b&gt;" style="ellipse;whiteSpace=wrap;html=1;align=center;fillColor=#f8cecc;strokeColor=#b85450;" vertex="1" parent="1">
          <mxGeometry x="344" y="140" width="100" height="40" as="geometry" />
        </mxCell>
        <mxCell id="cD0dvDehbpcGYG6VARs2-11" value="carrera_nombre" style="ellipse;whiteSpace=wrap;html=1;align=center;" vertex="1" parent="1">
          <mxGeometry x="174" y="140" width="100" height="40" as="geometry" />
        </mxCell>
        <mxCell id="cD0dvDehbpcGYG6VARs2-15" value="" style="edgeStyle=orthogonalEdgeStyle;rounded=0;orthogonalLoop=1;jettySize=auto;html=1;" edge="1" parent="1" source="cD0dvDehbpcGYG6VARs2-13" target="cD0dvDehbpcGYG6VARs2-2">
          <mxGeometry relative="1" as="geometry" />
        </mxCell>
        <mxCell id="cD0dvDehbpcGYG6VARs2-13" value="&lt;b&gt;pertenece&lt;/b&gt;" style="shape=rhombus;perimeter=rhombusPerimeter;whiteSpace=wrap;html=1;align=center;" vertex="1" parent="1">
          <mxGeometry x="404" y="260" width="120" height="60" as="geometry" />
        </mxCell>
        <mxCell id="cD0dvDehbpcGYG6VARs2-16" value="tipo_carrera" style="ellipse;whiteSpace=wrap;html=1;align=center;fillColor=#dae8fc;strokeColor=#6c8ebf;" vertex="1" parent="1">
          <mxGeometry x="84" y="190" width="100" height="40" as="geometry" />
        </mxCell>
        <mxCell id="cD0dvDehbpcGYG6VARs2-17" value="fecha" style="ellipse;whiteSpace=wrap;html=1;align=center;" vertex="1" parent="1">
          <mxGeometry x="84" y="240" width="100" height="40" as="geometry" />
        </mxCell>
        <mxCell id="cD0dvDehbpcGYG6VARs2-18" value="tiempo" style="ellipse;whiteSpace=wrap;html=1;align=center;" vertex="1" parent="1">
          <mxGeometry x="84" y="290" width="100" height="40" as="geometry" />
        </mxCell>
        <mxCell id="cD0dvDehbpcGYG6VARs2-19" value="mejor_tiempo" style="ellipse;whiteSpace=wrap;html=1;align=center;" vertex="1" parent="1">
          <mxGeometry x="84" y="350" width="100" height="40" as="geometry" />
        </mxCell>
        <mxCell id="cD0dvDehbpcGYG6VARs2-20" value="altitud" style="ellipse;whiteSpace=wrap;html=1;align=center;" vertex="1" parent="1">
          <mxGeometry x="84" y="400" width="100" height="40" as="geometry" />
        </mxCell>
        <mxCell id="cD0dvDehbpcGYG6VARs2-21" value="lugar" style="ellipse;whiteSpace=wrap;html=1;align=center;" vertex="1" parent="1">
          <mxGeometry x="84" y="450" width="100" height="40" as="geometry" />
        </mxCell>
        <mxCell id="cD0dvDehbpcGYG6VARs2-22" value="pais" style="ellipse;whiteSpace=wrap;html=1;align=center;fillColor=#dae8fc;strokeColor=#6c8ebf;" vertex="1" parent="1">
          <mxGeometry x="84" y="510" width="100" height="40" as="geometry" />
        </mxCell>
        <mxCell id="cD0dvDehbpcGYG6VARs2-30" value="tipo_carrera_id" style="ellipse;whiteSpace=wrap;html=1;align=center;fillColor=#f8cecc;strokeColor=#b85450;" vertex="1" parent="1">
          <mxGeometry x="524" y="150" width="100" height="40" as="geometry" />
        </mxCell>
        <mxCell id="cD0dvDehbpcGYG6VARs2-31" value="descripcion" style="ellipse;whiteSpace=wrap;html=1;align=center;" vertex="1" parent="1">
          <mxGeometry x="644" y="150" width="100" height="40" as="geometry" />
        </mxCell>
        <mxCell id="cD0dvDehbpcGYG6VARs2-32" value="distancia" style="ellipse;whiteSpace=wrap;html=1;align=center;" vertex="1" parent="1">
          <mxGeometry x="574" y="370" width="100" height="40" as="geometry" />
        </mxCell>
        <mxCell id="cD0dvDehbpcGYG6VARs2-38" style="edgeStyle=orthogonalEdgeStyle;rounded=0;orthogonalLoop=1;jettySize=auto;html=1;" edge="1" parent="1" source="cD0dvDehbpcGYG6VARs2-36" target="cD0dvDehbpcGYG6VARs2-3">
          <mxGeometry relative="1" as="geometry" />
        </mxCell>
        <mxCell id="cD0dvDehbpcGYG6VARs2-36" value="&lt;b&gt;se corre&lt;/b&gt;" style="shape=rhombus;perimeter=rhombusPerimeter;whiteSpace=wrap;html=1;align=center;" vertex="1" parent="1">
          <mxGeometry x="254" y="400" width="120" height="60" as="geometry" />
        </mxCell>
        <mxCell id="cD0dvDehbpcGYG6VARs2-39" value="1" style="text;strokeColor=#82b366;fillColor=#d5e8d4;spacingLeft=4;spacingRight=4;overflow=hidden;rotatable=0;points=[[0,0.5],[1,0.5]];portConstraint=eastwest;fontSize=12;whiteSpace=wrap;html=1;align=center;" vertex="1" parent="1">
          <mxGeometry x="364" y="240" width="40" height="30" as="geometry" />
        </mxCell>
        <mxCell id="cD0dvDehbpcGYG6VARs2-40" value="1" style="text;strokeColor=#82b366;fillColor=#d5e8d4;spacingLeft=4;spacingRight=4;overflow=hidden;rotatable=0;points=[[0,0.5],[1,0.5]];portConstraint=eastwest;fontSize=12;whiteSpace=wrap;html=1;align=center;" vertex="1" parent="1">
          <mxGeometry x="524" y="240" width="40" height="30" as="geometry" />
        </mxCell>
        <mxCell id="cD0dvDehbpcGYG6VARs2-41" value="1" style="text;strokeColor=#82b366;fillColor=#d5e8d4;spacingLeft=4;spacingRight=4;overflow=hidden;rotatable=0;points=[[0,0.5],[1,0.5]];portConstraint=eastwest;fontSize=12;whiteSpace=wrap;html=1;align=center;" vertex="1" parent="1">
          <mxGeometry x="324" y="470" width="40" height="30" as="geometry" />
        </mxCell>
        <mxCell id="cD0dvDehbpcGYG6VARs2-42" value="1" style="text;strokeColor=#82b366;fillColor=#d5e8d4;spacingLeft=4;spacingRight=4;overflow=hidden;rotatable=0;points=[[0,0.5],[1,0.5]];portConstraint=eastwest;fontSize=12;whiteSpace=wrap;html=1;align=center;" vertex="1" parent="1">
          <mxGeometry x="324" y="320" width="40" height="30" as="geometry" />
        </mxCell>
        <mxCell id="cD0dvDehbpcGYG6VARs2-43" value="pais_id" style="ellipse;whiteSpace=wrap;html=1;align=center;fillColor=#f8cecc;strokeColor=#b85450;" vertex="1" parent="1">
          <mxGeometry x="214" y="695" width="100" height="40" as="geometry" />
        </mxCell>
        <mxCell id="cD0dvDehbpcGYG6VARs2-44" value="nombre" style="ellipse;whiteSpace=wrap;html=1;align=center;" vertex="1" parent="1">
          <mxGeometry x="354" y="695" width="100" height="40" as="geometry" />
        </mxCell>
      </root>
    </mxGraphModel>
  </diagram>
</mxfile>
